<svg width="35" height="35" viewBox="0 0 35 35" fill="none" xmlns="http://www.w3.org/2000/svg">
<path fill-rule="evenodd" clip-rule="evenodd" d="M17.9668 0.970215C8.57796 0.970215 0.966797 8.58137 0.966797 17.9702C0.966797 27.3591 8.57796 34.9702 17.9668 34.9702C27.3556 34.9702 34.9668 27.3591 34.9668 17.9702C34.9668 8.58137 27.3556 0.970215 17.9668 0.970215ZM14.2291 8.95833C15.1962 8.91432 15.5053 8.90355 17.9676 8.90355H17.9648C20.4279 8.90355 20.7358 8.91432 21.703 8.95833C22.6682 9.00253 23.3274 9.15534 23.9054 9.37955C24.5023 9.61094 25.0067 9.92073 25.511 10.4251C26.0153 10.929 26.3251 11.4349 26.5575 12.0312C26.7803 12.6077 26.9333 13.2665 26.9787 14.2318C27.0221 15.1989 27.0335 15.5079 27.0335 17.9703C27.0335 20.4327 27.0221 20.741 26.9787 21.7081C26.9333 22.6729 26.7803 23.332 26.5575 23.9087C26.3251 24.5048 26.0153 25.0106 25.511 25.5146C25.0072 26.0189 24.5021 26.3295 23.906 26.5611C23.3291 26.7853 22.6695 26.9381 21.7043 26.9823C20.7372 27.0263 20.4291 27.0371 17.9665 27.0371C15.5043 27.0371 15.1955 27.0263 14.2284 26.9823C13.2633 26.9381 12.6043 26.7853 12.0274 26.5611C11.4315 26.3295 10.9256 26.0189 10.4218 25.5146C9.91769 25.0106 9.6079 24.5048 9.37613 23.9085C9.15211 23.332 8.9993 22.6731 8.95491 21.7079C8.91109 20.7408 8.90013 20.4327 8.90013 17.9703C8.90013 15.5079 8.91146 15.1987 8.95472 14.2316C8.99816 13.2667 9.15117 12.6077 9.37595 12.031C9.60828 11.4349 9.91806 10.929 10.4224 10.4251C10.9264 9.92091 11.4322 9.61113 12.0285 9.37955C12.605 9.15534 13.2639 9.00253 14.2291 8.95833Z" fill="white"/>
<path fill-rule="evenodd" clip-rule="evenodd" d="M17.1544 10.5374C17.3123 10.5372 17.4822 10.5373 17.6656 10.5373L17.9678 10.5374C20.3886 10.5374 20.6755 10.5461 21.6315 10.5896C22.5155 10.63 22.9953 10.7777 23.3149 10.9018C23.738 11.0661 24.0397 11.2626 24.3568 11.5799C24.6741 11.8972 24.8706 12.1995 25.0353 12.6226C25.1594 12.9418 25.3073 13.4216 25.3475 14.3056C25.391 15.2614 25.4004 15.5485 25.4004 17.9682C25.4004 20.3879 25.391 20.675 25.3475 21.6308C25.3071 22.5148 25.1594 22.9946 25.0353 23.3138C24.871 23.7369 24.6741 24.0382 24.3568 24.3554C24.0395 24.6727 23.7382 24.8691 23.3149 25.0335C22.9957 25.1581 22.5155 25.3055 21.6315 25.3459C20.6757 25.3893 20.3886 25.3988 17.9678 25.3988C15.5468 25.3988 15.2598 25.3893 14.304 25.3459C13.42 25.3051 12.9402 25.1574 12.6205 25.0333C12.1973 24.8689 11.8951 24.6725 11.5778 24.3552C11.2604 24.0378 11.064 23.7364 10.8993 23.3131C10.7752 22.9938 10.6273 22.514 10.587 21.63C10.5436 20.6743 10.5349 20.3871 10.5349 17.9659C10.5349 15.5447 10.5436 15.2591 10.587 14.3033C10.6275 13.4193 10.7752 12.9395 10.8993 12.6199C11.0636 12.1968 11.2604 11.8946 11.5778 11.5773C11.8951 11.2599 12.1973 11.0635 12.6205 10.8988C12.9401 10.7741 13.42 10.6268 14.304 10.5862C15.1404 10.5484 15.4646 10.537 17.1544 10.5352V10.5374ZM22.8075 12.0429C22.2069 12.0429 21.7195 12.5297 21.7195 13.1305C21.7195 13.7312 22.2069 14.2185 22.8075 14.2185C23.4082 14.2185 23.8955 13.7312 23.8955 13.1305C23.8955 12.5298 23.4082 12.0425 22.8075 12.0425V12.0429ZM13.3116 17.9703C13.3116 15.3989 15.3964 13.3141 17.9678 13.3141H17.9676C20.5389 13.3141 22.6232 15.3989 22.6232 17.9703C22.6232 20.5416 20.5391 22.6255 17.9678 22.6255C15.3964 22.6255 13.3116 20.5416 13.3116 17.9703Z" fill="white"/>
<path d="M17.9676 14.9482C19.6366 14.9482 20.9898 16.3013 20.9898 17.9705C20.9898 19.6395 19.6366 20.9927 17.9676 20.9927C16.2983 20.9927 14.9453 19.6395 14.9453 17.9705C14.9453 16.3013 16.2983 14.9482 17.9676 14.9482Z" fill="white"/>
</svg>
