<svg width="159" height="69" viewBox="0 0 159 69" fill="none" xmlns="http://www.w3.org/2000/svg">
<g clip-path="url(#clip0_2_944)">
<path d="M83.8594 2.29827C83.8594 2.2891 83.8558 2.2803 83.8493 2.27381C83.8428 2.26732 83.834 2.26367 83.8248 2.26367H47.5623C47.5531 2.26367 47.5443 2.26732 47.5378 2.27381C47.5314 2.2803 47.5277 2.2891 47.5277 2.29827V59.021C47.5277 59.0301 47.5314 59.0389 47.5378 59.0454C47.5443 59.0519 47.5531 59.0556 47.5623 59.0556H83.8248C83.834 59.0556 83.8428 59.0519 83.8493 59.0454C83.8558 59.0389 83.8594 59.0301 83.8594 59.021V2.29827Z" stroke="#9F5B4C" stroke-width="0.570342"/>
<path d="M87.2651 61.4084C87.2651 61.3844 87.2555 61.3613 87.2386 61.3444C87.2216 61.3274 87.1986 61.3179 87.1746 61.3179H44.2233C44.2114 61.3179 44.1997 61.3202 44.1887 61.3248C44.1777 61.3293 44.1677 61.336 44.1593 61.3444C44.1509 61.3528 44.1442 61.3628 44.1397 61.3737C44.1352 61.3847 44.1328 61.3965 44.1328 61.4084V65.7841C44.1328 65.796 44.1352 65.8078 44.1397 65.8188C44.1442 65.8298 44.1509 65.8397 44.1593 65.8481C44.1677 65.8565 44.1777 65.8632 44.1887 65.8677C44.1997 65.8723 44.2114 65.8746 44.2233 65.8746H87.1746C87.1986 65.8746 87.2216 65.8651 87.2386 65.8481C87.2555 65.8312 87.2651 65.8081 87.2651 65.7841V61.4084Z" stroke="#4B4A4F" stroke-width="0.570342"/>
<path d="M82.7282 4.61637C82.7282 4.29271 82.5996 3.9823 82.3708 3.75343C82.1419 3.52457 81.8315 3.396 81.5078 3.396H49.8793C49.5556 3.396 49.2452 3.52457 49.0164 3.75343C48.7875 3.9823 48.6589 4.29271 48.6589 4.61637V56.7024C48.6589 57.0261 48.7875 57.3365 49.0164 57.5654C49.2452 57.7942 49.5556 57.9228 49.8793 57.9228H81.5078C81.8315 57.9228 82.1419 57.7942 82.3708 57.5654C82.5996 57.3365 82.7282 57.0261 82.7282 56.7024V4.61637Z" stroke="#9F5B4C" stroke-width="0.570342"/>
<path d="M80.4658 5.73057C80.4658 5.71928 80.4614 5.70845 80.4534 5.70046C80.4454 5.69247 80.4345 5.68799 80.4233 5.68799H50.964C50.9527 5.68799 50.9418 5.69247 50.9339 5.70046C50.9259 5.70845 50.9214 5.71928 50.9214 5.73057V55.6101C50.9214 55.6214 50.9259 55.6323 50.9339 55.6402C50.9418 55.6482 50.9527 55.6527 50.964 55.6527H80.4233C80.4345 55.6527 80.4454 55.6482 80.4534 55.6402C80.4614 55.6323 80.4658 55.6214 80.4658 55.6101V5.73057Z" stroke="#9F946E" stroke-width="0.570342"/>
<path d="M55.5486 32.9378H62.232C62.2764 32.9378 62.2986 32.96 62.2986 33.0044C62.3004 34.0202 62.3017 35.0357 62.3026 36.0507C62.3039 37.9458 64.5477 37.8592 64.5583 36.197C64.5672 34.7748 64.5677 31.8865 64.5597 27.532C64.5583 27.1674 64.4851 26.7215 64.2536 26.4913C62.8234 25.0629 61.3936 23.6318 59.9643 22.198C58.889 21.1187 58.3593 21.6391 57.4224 22.5653C56.1501 23.8252 54.885 25.0921 53.6269 26.3662C53.374 26.623 53.217 26.9464 53.217 27.2818C53.2161 30.2549 53.2166 33.228 53.2183 36.201C53.2197 37.8992 55.4954 37.9005 55.4821 36.032C55.475 35.0224 55.4754 34.0127 55.4834 33.003C55.4834 32.9596 55.5051 32.9378 55.5486 32.9378Z" stroke="#9F946E" stroke-width="0.570342"/>
<path d="M66.8607 36.2889C66.8647 36.9663 67.3412 37.4693 68.0226 37.4693C69.3827 37.4702 70.7428 37.4667 72.1029 37.4587C72.6494 37.456 73.0722 37.4329 73.3712 37.3895C75.6668 37.0541 77.4488 35.2921 77.9825 33.1681C78.1103 32.6588 78.1737 31.8794 78.1728 30.8298C78.1715 29.4098 78.2979 27.7955 78.1049 26.4008C77.7829 24.0918 75.965 22.2952 73.8396 21.7748C72.3305 21.4048 70.108 21.5952 68.3885 21.5925C67.4982 21.5912 66.8288 21.8454 66.8275 22.8235C66.8221 27.3129 66.8332 31.8013 66.8607 36.2889Z" stroke="#9F946E" stroke-width="0.570342"/>
<path d="M55.4795 30.5889C55.4795 30.5973 55.4811 30.6056 55.4844 30.6134C55.4876 30.6211 55.4923 30.6282 55.4982 30.6341C55.5041 30.64 55.5112 30.6447 55.5189 30.6479C55.5267 30.6512 55.535 30.6528 55.5434 30.6528L62.2428 30.6688C62.2513 30.6688 62.2597 30.6671 62.2675 30.6638C62.2754 30.6605 62.2825 30.6557 62.2884 30.6496C62.2944 30.6435 62.2991 30.6363 62.3022 30.6284C62.3053 30.6205 62.3068 30.6121 62.3067 30.6036L62.2734 27.7303C62.2734 27.7219 62.2718 27.7136 62.2686 27.7058C62.2654 27.6981 62.2607 27.691 62.2548 27.685L58.9343 24.366C58.9284 24.36 58.9213 24.3553 58.9136 24.3521C58.9058 24.3488 58.8975 24.3472 58.8891 24.3472C58.8807 24.3472 58.8724 24.3488 58.8646 24.3521C58.8568 24.3553 58.8498 24.36 58.8438 24.366L55.4981 27.713C55.4922 27.7189 55.4875 27.726 55.4843 27.7338C55.4811 27.7415 55.4795 27.7498 55.4795 27.7582V30.5889Z" stroke="#9F946E" stroke-width="0.570342"/>
<path d="M72.6032 35.1882C74.485 35.1004 75.905 33.6231 75.9037 31.74C75.9037 30.4828 75.9059 29.2256 75.9103 27.9684C75.9139 27.2321 75.8567 26.67 75.7387 26.2823C74.8137 23.248 71.5998 23.8668 69.1564 23.8535C69.1102 23.8526 69.0872 23.8753 69.0872 23.9214V35.131C69.0872 35.17 69.1071 35.19 69.147 35.1909C70.9357 35.2139 72.0877 35.2131 72.6032 35.1882Z" stroke="#9F946E" stroke-width="0.570342"/>
<path d="M46.3381 0H85.0653C85.929 0.146391 86.1219 0.686709 86.1219 1.5238C86.121 20.6691 86.1215 39.8158 86.1233 58.9638C86.1233 59.017 86.1494 59.0445 86.2018 59.0463C86.822 59.0649 87.443 59.0703 88.0649 59.0623C89.284 59.045 89.5422 59.5999 89.5448 60.7618C89.5502 62.4519 89.551 64.1385 89.5475 65.8216C89.5475 65.8289 89.5489 65.8362 89.5517 65.843C89.5546 65.8498 89.5587 65.8559 89.5639 65.8611C89.5691 65.8663 89.5752 65.8704 89.582 65.8732C89.5888 65.876 89.596 65.8775 89.6034 65.8775C91.0123 65.8748 92.419 65.8753 93.8235 65.8788C95.5149 65.8815 95.7026 67.8724 94.1322 68.1386H37.2392C35.6355 67.7646 35.9496 65.8349 37.5453 65.8735C38.3313 65.8921 39.7411 65.8895 41.7746 65.8655C41.819 65.8646 41.8412 65.842 41.8412 65.7976C41.835 63.9762 41.8381 62.1622 41.8505 60.3559C41.8625 58.5659 44.0836 59.0796 45.1842 59.0463C45.2384 59.0454 45.2654 59.0179 45.2654 58.9638C45.2654 39.7519 45.2654 20.5409 45.2654 1.33083C45.2654 0.572257 45.623 0.128647 46.3381 0ZM83.8595 2.29835C83.8595 2.28917 83.8559 2.28037 83.8494 2.27388C83.8429 2.26739 83.8341 2.26374 83.8249 2.26374H47.5624C47.5533 2.26374 47.5445 2.26739 47.538 2.27388C47.5315 2.28037 47.5278 2.28917 47.5278 2.29835V59.021C47.5278 59.0302 47.5315 59.039 47.538 59.0455C47.5445 59.052 47.5533 59.0556 47.5624 59.0556H83.8249C83.8341 59.0556 83.8429 59.052 83.8494 59.0455C83.8559 59.039 83.8595 59.0302 83.8595 59.021V2.29835ZM87.2651 61.4085C87.2651 61.3845 87.2556 61.3615 87.2386 61.3446C87.2216 61.3276 87.1986 61.318 87.1746 61.318H44.2234C44.2115 61.318 44.1997 61.3204 44.1887 61.3249C44.1778 61.3295 44.1678 61.3361 44.1594 61.3446C44.151 61.353 44.1443 61.3629 44.1398 61.3739C44.1352 61.3849 44.1329 61.3967 44.1329 61.4085V65.7843C44.1329 65.7962 44.1352 65.808 44.1398 65.8189C44.1443 65.8299 44.151 65.8399 44.1594 65.8483C44.1678 65.8567 44.1778 65.8634 44.1887 65.8679C44.1997 65.8725 44.2115 65.8748 44.2234 65.8748H87.1746C87.1986 65.8748 87.2216 65.8653 87.2386 65.8483C87.2556 65.8313 87.2651 65.8083 87.2651 65.7843V61.4085Z" fill="#3E3D42"/>
<path d="M83.8595 59.021C83.8595 59.0301 83.8559 59.0389 83.8494 59.0454C83.8429 59.0519 83.8341 59.0556 83.8249 59.0556H47.5624C47.5533 59.0556 47.5445 59.0519 47.538 59.0454C47.5315 59.0389 47.5278 59.0301 47.5278 59.021V2.29827C47.5278 2.2891 47.5315 2.2803 47.538 2.27381C47.5445 2.26732 47.5533 2.26367 47.5624 2.26367H83.8249C83.8341 2.26367 83.8429 2.26732 83.8494 2.27381C83.8559 2.2803 83.8595 2.2891 83.8595 2.29827V59.021ZM82.7283 4.61658C82.7283 4.29292 82.5998 3.98251 82.3709 3.75365C82.142 3.52478 81.8316 3.39621 81.5079 3.39621H49.8794C49.5557 3.39621 49.2453 3.52478 49.0165 3.75365C48.7876 3.98251 48.659 4.29292 48.659 4.61658V56.7027C48.659 57.0263 48.7876 57.3367 49.0165 57.5656C49.2453 57.7944 49.5557 57.923 49.8794 57.923H81.5079C81.8316 57.923 82.142 57.7944 82.3709 57.5656C82.5998 57.3367 82.7283 57.0263 82.7283 56.7027V4.61658Z" fill="#0075F2"/>
<path d="M82.7283 56.7029C82.7283 57.0266 82.5998 57.337 82.3709 57.5659C82.142 57.7947 81.8316 57.9233 81.508 57.9233H49.8794C49.5558 57.9233 49.2454 57.7947 49.0165 57.5659C48.7876 57.337 48.6591 57.0266 48.6591 56.7029V4.61686C48.6591 4.29319 48.7876 3.98279 49.0165 3.75392C49.2454 3.52506 49.5558 3.39648 49.8794 3.39648H81.508C81.8316 3.39648 82.142 3.52506 82.3709 3.75392C82.5998 3.98279 82.7283 4.29319 82.7283 4.61686V56.7029ZM80.4659 5.73076C80.4659 5.71947 80.4614 5.70864 80.4535 5.70065C80.4455 5.69266 80.4346 5.68818 80.4233 5.68818H50.9641C50.9528 5.68818 50.9419 5.69266 50.9339 5.70065C50.926 5.70864 50.9215 5.71947 50.9215 5.73076V55.6103C50.9215 55.6216 50.926 55.6325 50.9339 55.6404C50.9419 55.6484 50.9528 55.6529 50.9641 55.6529H80.4233C80.4346 55.6529 80.4455 55.6484 80.4535 55.6404C80.4614 55.6325 80.4659 55.6216 80.4659 55.6103V5.73076Z" fill="#3E3D42"/>
<path d="M80.466 55.6101C80.466 55.6214 80.4615 55.6323 80.4535 55.6402C80.4455 55.6482 80.4347 55.6527 80.4234 55.6527H50.9641C50.9528 55.6527 50.942 55.6482 50.934 55.6402C50.926 55.6323 50.9215 55.6214 50.9215 55.6101V5.73057C50.9215 5.71928 50.926 5.70845 50.934 5.70046C50.942 5.69247 50.9528 5.68799 50.9641 5.68799H80.4234C80.4347 5.68799 80.4455 5.69247 80.4535 5.70046C80.4615 5.70845 80.466 5.71928 80.466 5.73057V55.6101ZM55.5488 32.9381H62.2322C62.2766 32.9381 62.2988 32.9603 62.2988 33.0046C62.3006 34.0205 62.3019 35.0359 62.3028 36.0509C62.3041 37.946 64.5479 37.8595 64.5585 36.1973C64.5674 34.7751 64.5679 31.8867 64.5599 27.5323C64.5585 27.1676 64.4853 26.7218 64.2538 26.4915C62.8236 25.0631 61.3938 23.632 59.9645 22.1983C58.8892 21.119 58.3595 21.6393 57.4226 22.5656C56.1503 23.8254 54.8852 25.0924 53.6271 26.3664C53.3742 26.6233 53.2172 26.9467 53.2172 27.2821C53.2163 30.2551 53.2167 33.2282 53.2185 36.2013C53.2199 37.8994 55.4956 37.9008 55.4823 36.0323C55.4752 35.0226 55.4756 34.013 55.4836 33.0033C55.4836 32.9598 55.5053 32.9381 55.5488 32.9381ZM66.8609 36.2891C66.8649 36.9665 67.3413 37.4696 68.0227 37.4696C69.3828 37.4705 70.7429 37.4669 72.103 37.4589C72.6495 37.4563 73.0723 37.4332 73.3713 37.3897C75.667 37.0543 77.449 35.2923 77.9826 33.1683C78.1104 32.6591 78.1738 31.8796 78.1729 30.8301C78.1716 29.4101 78.298 27.7958 78.1051 26.401C77.783 24.0921 75.9651 22.2954 73.8398 21.7751C72.3306 21.4051 70.1081 21.5954 68.3887 21.5928C67.4983 21.5914 66.8289 21.8456 66.8276 22.8238C66.8223 27.3131 66.8334 31.8016 66.8609 36.2891Z" fill="#0075F2"/>
<path d="M68.0227 37.4698C67.3413 37.4698 66.8649 36.9667 66.8609 36.2894C66.8334 31.8018 66.8223 27.3133 66.8276 22.824C66.8289 21.8458 67.4983 21.5917 68.3887 21.593C70.1081 21.5956 72.3306 21.4053 73.8397 21.7753C75.9651 22.2957 77.783 24.0923 78.1051 26.4013C78.298 27.796 78.1716 29.4103 78.1729 30.8303C78.1738 31.8799 78.1104 32.6593 77.9826 33.1686C77.449 35.2926 75.667 37.0546 73.3713 37.39C73.0723 37.4334 72.6495 37.4565 72.103 37.4592C70.7429 37.4671 69.3828 37.4707 68.0227 37.4698ZM72.6034 35.1888C74.4852 35.1009 75.9052 33.6237 75.9039 31.7406C75.9039 30.4834 75.9061 29.2262 75.9105 27.969C75.9141 27.2326 75.8568 26.6705 75.7388 26.2828C74.8139 23.2485 71.5999 23.8674 69.1565 23.8541C69.1104 23.8532 69.0873 23.8758 69.0873 23.9219V35.1315C69.0873 35.1706 69.1073 35.1905 69.1472 35.1914C70.9359 35.2145 72.0879 35.2136 72.6034 35.1888Z" fill="#3E3D42"/>
<path d="M75.9038 31.7405C75.9051 33.6236 74.4851 35.1009 72.6033 35.1887C72.0879 35.2135 70.9358 35.2144 69.1472 35.1914C69.1072 35.1905 69.0873 35.1705 69.0873 35.1315V23.9219C69.0873 23.8757 69.1103 23.8531 69.1565 23.854C71.5999 23.8673 74.8138 23.2485 75.7388 26.2828C75.8568 26.6705 75.914 27.2325 75.9105 27.9689C75.906 29.2261 75.9038 30.4833 75.9038 31.7405Z" fill="#0075F2"/>
<path d="M55.4796 30.5889V27.7582C55.4796 27.7498 55.4812 27.7415 55.4844 27.7338C55.4876 27.726 55.4923 27.7189 55.4982 27.713L58.844 24.366C58.8499 24.36 58.8569 24.3553 58.8647 24.3521C58.8725 24.3488 58.8808 24.3472 58.8892 24.3472C58.8976 24.3472 58.9059 24.3488 58.9137 24.3521C58.9215 24.3553 58.9285 24.36 58.9345 24.366L62.2549 27.685C62.2608 27.691 62.2655 27.6981 62.2687 27.7058C62.2719 27.7136 62.2735 27.7219 62.2735 27.7303L62.3068 30.6036C62.307 30.6121 62.3054 30.6205 62.3023 30.6284C62.2992 30.6363 62.2945 30.6435 62.2885 30.6496C62.2826 30.6557 62.2755 30.6605 62.2677 30.6638C62.2598 30.6671 62.2514 30.6688 62.2429 30.6688L55.5435 30.6528C55.5351 30.6528 55.5268 30.6512 55.519 30.6479C55.5113 30.6447 55.5043 30.64 55.4983 30.6341C55.4924 30.6282 55.4877 30.6211 55.4845 30.6134C55.4813 30.6056 55.4796 30.5973 55.4796 30.5889Z" fill="#0075F2"/>
<path d="M87.1746 61.3179H44.2233C44.1733 61.3179 44.1328 61.3584 44.1328 61.4084V65.7841C44.1328 65.8341 44.1733 65.8746 44.2233 65.8746H87.1746C87.2245 65.8746 87.2651 65.8341 87.2651 65.7841V61.4084C87.2651 61.3584 87.2245 61.3179 87.1746 61.3179Z" fill="#57565C"/>
<rect x="53.1682" y="20.2915" width="13.0265" height="18.5377" fill="#0075F2"/>
<rect x="63.9402" y="19.5396" width="15.0306" height="19.2892" fill="#0075F2"/>
<path d="M64.9905 36.8419V40.4089H52.7073V21.9614H56.8459V36.8419H64.9905Z" fill="white"/>
<path d="M79.9393 36.8419V40.4089H67.6561V21.9614H71.7947V36.8419H79.9393Z" fill="white"/>
</g>
<path d="M9.36953 14.9336C14.0243 14.9336 17.5979 15.7377 20.0904 17.3459C22.583 18.9249 23.8292 21.5272 23.8292 25.153C23.8292 28.808 22.5679 31.4542 20.0454 33.0916C17.5228 34.6998 13.9192 35.5039 9.23439 35.5039H7.02714V45.6794H0V15.7231C1.53156 15.4307 3.15321 15.226 4.86495 15.109C6.57669 14.9921 8.07821 14.9336 9.36953 14.9336ZM9.81998 20.767C9.30947 20.767 8.79895 20.7816 8.28843 20.8108C7.80794 20.8401 7.38751 20.8693 7.02714 20.8986V29.6706H9.23439C11.6669 29.6706 13.4987 29.3489 14.73 28.7056C15.9612 28.0624 16.5769 26.8635 16.5769 25.1091C16.5769 24.2612 16.4117 23.5594 16.0813 23.0038C15.781 22.4483 15.3306 22.0097 14.73 21.688C14.1594 21.3372 13.4537 21.1032 12.6128 20.9863C11.772 20.8401 10.841 20.767 9.81998 20.767Z" fill="white"/>
<path d="M28.9894 15.2845H36.0166V45.6794H28.9894V15.2845Z" fill="white"/>
<path d="M108.906 45.0841C108.641 44.0635 108.34 43.0145 108.003 41.9372C107.689 40.8599 107.376 39.7826 107.063 38.7053H97.3022C96.9889 39.7826 96.6636 40.8599 96.3262 41.9372C96.0128 43.0145 95.7236 44.0635 95.4585 45.0841H89.6022C90.5421 41.9089 91.4338 38.9746 92.2773 36.2813C93.1208 33.5881 93.9402 31.0507 94.7355 28.6693C95.5549 26.2879 96.3503 24.034 97.1215 21.9078C97.9168 19.7531 98.7362 17.6552 99.5797 15.614H104.966C105.786 17.6552 106.593 19.7531 107.388 21.9078C108.183 24.034 108.979 26.2879 109.774 28.6693C110.594 31.0507 111.425 33.5881 112.268 36.2813C113.112 38.9746 114.004 41.9089 114.944 45.0841H108.906ZM102.146 22.2905C102.026 22.7157 101.845 23.2969 101.604 24.034C101.363 24.7711 101.086 25.6216 100.773 26.5856C100.459 27.5495 100.11 28.6126 99.7243 29.775C99.3628 30.9373 98.9892 32.1564 98.6036 33.4321H105.725C105.34 32.1564 104.966 30.9373 104.605 29.775C104.243 28.6126 103.894 27.5495 103.556 26.5856C103.243 25.6216 102.966 24.7711 102.725 24.034C102.484 23.2969 102.291 22.7157 102.146 22.2905Z" fill="white"/>
<path d="M125.525 15.2738C129.285 15.2738 132.165 16.0676 134.165 17.6552C136.165 19.2145 137.165 21.6526 137.165 24.9696C137.165 27.0392 136.756 28.726 135.936 30.0301C135.141 31.3059 133.984 32.3123 132.466 33.0494C132.972 33.7865 133.502 34.637 134.056 35.6009C134.611 36.5365 135.153 37.5287 135.683 38.5777C136.238 39.5983 136.768 40.6756 137.274 41.8096C137.78 42.9153 138.25 44.0068 138.684 45.0841H132.357C131.899 44.1202 131.43 43.1421 130.948 42.1498C130.49 41.1576 130.008 40.1937 129.502 39.2581C129.019 38.3226 128.537 37.4437 128.055 36.6215C127.573 35.771 127.091 35.0056 126.609 34.3252H123.826V45.0841H118.186V16.0393C119.416 15.7558 120.681 15.5573 121.982 15.4439C123.308 15.3305 124.489 15.2738 125.525 15.2738ZM125.85 20.9297C125.441 20.9297 125.067 20.9438 124.73 20.9722C124.416 21.0005 124.115 21.0289 123.826 21.0573V29.052H125.417C127.537 29.052 129.056 28.7402 129.971 28.1165C130.887 27.4928 131.345 26.4296 131.345 24.9271C131.345 23.4812 130.875 22.4606 129.935 21.8652C129.019 21.2415 127.658 20.9297 125.85 20.9297Z" fill="white"/>
<path d="M149.131 40.0236C149.926 40.0236 150.577 39.9527 151.083 39.8109C151.613 39.6408 152.035 39.4282 152.348 39.1731C152.662 38.8896 152.878 38.5635 152.999 38.195C153.119 37.8264 153.18 37.4153 153.18 36.9617C153.18 35.9978 152.794 35.204 152.023 34.5803C151.252 33.9283 149.926 33.2337 148.046 32.4966C147.227 32.1564 146.408 31.7736 145.588 31.3484C144.769 30.8948 144.034 30.342 143.383 29.6899C142.732 29.0095 142.202 28.2015 141.792 27.266C141.383 26.302 141.178 25.1397 141.178 23.7789C141.178 22.4181 141.395 21.199 141.829 20.1217C142.262 19.016 142.877 18.0805 143.672 17.315C144.467 16.5496 145.431 15.9684 146.564 15.5715C147.697 15.1462 148.974 14.9336 150.396 14.9336C152.083 14.9336 153.541 15.1462 154.77 15.5715C155.999 15.9967 157.012 16.4645 157.807 16.9748L156.18 22.2054C155.481 21.7802 154.698 21.4116 153.83 21.0998C152.987 20.7596 151.963 20.5895 150.758 20.5895C149.408 20.5895 148.432 20.8163 147.829 21.2699C147.251 21.6951 146.962 22.3614 146.962 23.2686C146.962 23.8072 147.07 24.2608 147.287 24.6294C147.504 24.9979 147.805 25.3381 148.191 25.65C148.601 25.9335 149.059 26.2028 149.565 26.458C150.095 26.6848 150.673 26.9258 151.3 27.1809C152.601 27.7479 153.734 28.3149 154.698 28.8819C155.662 29.4206 156.457 30.0585 157.084 30.7956C157.735 31.5327 158.217 32.3974 158.53 33.3896C158.843 34.3819 159 35.5868 159 37.0043C159 39.7542 158.181 41.8947 156.542 43.4256C154.903 44.9282 152.433 45.6794 149.131 45.6794C148.022 45.6794 147.022 45.5944 146.13 45.4243C145.239 45.2825 144.443 45.0983 143.744 44.8715C143.07 44.6447 142.479 44.4037 141.973 44.1485C141.491 43.8934 141.081 43.6524 140.744 43.4256L142.335 38.1525C143.082 38.6344 143.998 39.0738 145.082 39.4707C146.191 39.8393 147.54 40.0236 149.131 40.0236Z" fill="white"/>
<defs>
<clipPath id="clip0_2_944">
<rect width="68.1386" height="68.1386" fill="white" transform="translate(31.6244)"/>
</clipPath>
</defs>
</svg>
