<svg width="103" height="31" viewBox="0 0 103 31" fill="none" xmlns="http://www.w3.org/2000/svg">
<path d="M0.656006 26.96V9.70398H14.792C15.368 9.70398 15.896 9.84798 16.376 10.136C16.856 10.424 17.232 10.808 17.504 11.288C17.792 11.752 17.936 12.264 17.936 12.824V17.672C17.936 18.248 17.792 18.776 17.504 19.256C17.232 19.72 16.856 20.096 16.376 20.384C15.896 20.656 15.368 20.792 14.792 20.792L3.24801 20.816V26.96H0.656006ZM3.84801 18.176H14.744C14.904 18.176 15.04 18.12 15.152 18.008C15.264 17.896 15.32 17.76 15.32 17.6V12.896C15.32 12.736 15.264 12.6 15.152 12.488C15.04 12.36 14.904 12.296 14.744 12.296H3.84801C3.68801 12.296 3.54401 12.36 3.41601 12.488C3.30401 12.6 3.24801 12.736 3.24801 12.896V17.6C3.24801 17.76 3.30401 17.896 3.41601 18.008C3.54401 18.12 3.68801 18.176 3.84801 18.176Z" fill="white"/>
<path d="M45.7509 26.96V12.8C45.7509 12.224 45.8869 11.704 46.1589 11.24C46.4469 10.76 46.8229 10.384 47.2869 10.112C47.7669 9.82398 48.2949 9.67998 48.8709 9.67998H59.8869C60.4629 9.67998 60.9909 9.82398 61.4709 10.112C61.9509 10.384 62.3269 10.76 62.5989 11.24C62.8869 11.704 63.0309 12.224 63.0309 12.8V26.96H60.4149V20.912H48.3429V26.96H45.7509ZM48.3429 18.32H60.4149V12.872C60.4149 12.712 60.3589 12.576 60.2469 12.464C60.1349 12.336 59.9989 12.272 59.8389 12.272H48.9429C48.7829 12.272 48.6389 12.336 48.5109 12.464C48.3989 12.576 48.3429 12.712 48.3429 12.872V18.32Z" fill="white"/>
<path d="M79.9254 26.96L74.5254 20.504H77.9094L82.9494 26.48V26.96H79.9254ZM65.7654 26.96V9.70398H79.9014C80.4774 9.70398 81.0054 9.84798 81.4854 10.136C81.9654 10.424 82.3414 10.808 82.6134 11.288C82.9014 11.752 83.0454 12.264 83.0454 12.824V17.672C83.0454 18.248 82.9014 18.776 82.6134 19.256C82.3414 19.72 81.9654 20.096 81.4854 20.384C81.0054 20.656 80.4774 20.792 79.9014 20.792L68.3574 20.816V26.96H65.7654ZM68.9574 18.176H79.8534C80.0134 18.176 80.1494 18.12 80.2614 18.008C80.3734 17.896 80.4294 17.76 80.4294 17.6V12.896C80.4294 12.736 80.3734 12.6 80.2614 12.488C80.1494 12.36 80.0134 12.296 79.8534 12.296H68.9574C68.7974 12.296 68.6534 12.36 68.5254 12.488C68.4134 12.6 68.3574 12.736 68.3574 12.896V17.6C68.3574 17.76 68.4134 17.896 68.5254 18.008C68.6534 18.12 68.7974 18.176 68.9574 18.176Z" fill="white"/>
<path d="M88.5941 26.96C88.0341 26.96 87.5141 26.824 87.0341 26.552C86.5541 26.264 86.1701 25.888 85.8821 25.424C85.6101 24.944 85.4741 24.416 85.4741 23.84V22.832H88.0661V23.768C88.0661 23.928 88.1221 24.072 88.2341 24.2C88.3621 24.312 88.5061 24.368 88.6661 24.368H99.5621C99.7221 24.368 99.8581 24.312 99.9701 24.2C100.082 24.072 100.138 23.928 100.138 23.768V20.216C100.138 20.04 100.082 19.896 99.9701 19.784C99.8581 19.672 99.7221 19.616 99.5621 19.616H88.5941C88.0341 19.616 87.5141 19.48 87.0341 19.208C86.5541 18.92 86.1701 18.544 85.8821 18.08C85.6101 17.6 85.4741 17.072 85.4741 16.496V12.8C85.4741 12.224 85.6101 11.704 85.8821 11.24C86.1701 10.76 86.5541 10.384 87.0341 10.112C87.5141 9.82398 88.0341 9.67998 88.5941 9.67998H99.6341C100.194 9.67998 100.714 9.82398 101.194 10.112C101.674 10.384 102.05 10.76 102.322 11.24C102.61 11.704 102.754 12.224 102.754 12.8V13.808H100.138V12.872C100.138 12.712 100.082 12.576 99.9701 12.464C99.8581 12.336 99.7221 12.272 99.5621 12.272H88.6661C88.5061 12.272 88.3621 12.336 88.2341 12.464C88.1221 12.576 88.0661 12.712 88.0661 12.872V16.424C88.0661 16.6 88.1221 16.744 88.2341 16.856C88.3621 16.968 88.5061 17.024 88.6661 17.024H99.6341C100.194 17.024 100.714 17.168 101.194 17.456C101.674 17.728 102.05 18.104 102.322 18.584C102.61 19.048 102.754 19.568 102.754 20.144V23.84C102.754 24.416 102.61 24.944 102.322 25.424C102.05 25.888 101.674 26.264 101.194 26.552C100.714 26.824 100.194 26.96 99.6341 26.96H88.5941Z" fill="white"/>
<line x1="26.656" y1="29.48" x2="43.656" y2="29.48" stroke="#9C2828" stroke-width="2"/>
<path d="M26.656 8.47998L33.8846 2.52703C34.6231 1.91884 35.6889 1.91884 36.4274 2.52703L43.656 8.47998" stroke="#9C2828" stroke-width="2"/>
<path d="M30.6546 9.77918H29.8962C29.854 9.77918 29.8203 9.76721 29.7951 9.74328C29.7698 9.71136 29.7571 9.67546 29.7571 9.63557C29.7571 9.58769 29.7698 9.55179 29.7951 9.52785C29.8203 9.49594 29.854 9.47998 29.8962 9.47998H34.0043C34.0465 9.47998 34.0802 9.49594 34.1054 9.52785C34.1392 9.55179 34.156 9.5837 34.156 9.6236C34.156 9.67147 34.1392 9.71136 34.1054 9.74328C34.0802 9.76721 34.0465 9.77918 34.0043 9.77918H33.2459V27.1688H34.0043C34.0886 27.2247 34.1307 27.2765 34.1307 27.3244C34.1307 27.3802 34.0886 27.4321 34.0043 27.48H29.7951C29.7024 27.4241 29.656 27.3723 29.656 27.3244C29.656 27.2765 29.7024 27.2247 29.7951 27.1688H30.6546V9.77918Z" fill="#9C2828"/>
<path d="M37.6546 9.77918H36.8962C36.854 9.77918 36.8203 9.76721 36.7951 9.74328C36.7698 9.71136 36.7571 9.67546 36.7571 9.63557C36.7571 9.58769 36.7698 9.55179 36.7951 9.52785C36.8203 9.49594 36.854 9.47998 36.8962 9.47998H41.0043C41.0465 9.47998 41.0802 9.49594 41.1054 9.52785C41.1392 9.55179 41.156 9.5837 41.156 9.6236C41.156 9.67147 41.1392 9.71136 41.1054 9.74328C41.0802 9.76721 41.0465 9.77918 41.0043 9.77918H40.2459V27.1688H41.0043C41.0886 27.2247 41.1307 27.2765 41.1307 27.3244C41.1307 27.3802 41.0886 27.4321 41.0043 27.48H36.7951C36.7024 27.4241 36.656 27.3723 36.656 27.3244C36.656 27.2765 36.7024 27.2247 36.7951 27.1688H37.6546V9.77918Z" fill="#9C2828"/>
<line x1="36.656" y1="0.97998" x2="33.656" y2="0.979981" stroke="#9C2828"/>
<path d="M21 27V10H24V27H21Z" fill="white"/>
</svg>
