<svg width="132" height="39" viewBox="0 0 132 39" fill="none" xmlns="http://www.w3.org/2000/svg">
<path d="M0 34.1555V11.8977H18.2335C18.9764 11.8977 19.6575 12.0834 20.2766 12.4549C20.8957 12.8264 21.3807 13.3217 21.7316 13.9408C22.103 14.5393 22.2888 15.1997 22.2888 15.922V22.1753C22.2888 22.9182 22.103 23.5993 21.7316 24.2184C21.3807 24.8169 20.8957 25.3019 20.2766 25.6734C19.6575 26.0242 18.9764 26.1996 18.2335 26.1996L3.34332 26.2306V34.1555H0ZM4.11723 22.8253H18.1715C18.3779 22.8253 18.5533 22.7531 18.6978 22.6087C18.8423 22.4642 18.9145 22.2888 18.9145 22.0824V16.0149C18.9145 15.8085 18.8423 15.6331 18.6978 15.4886C18.5533 15.3235 18.3779 15.241 18.1715 15.241H4.11723C3.91085 15.241 3.72511 15.3235 3.56001 15.4886C3.41555 15.6331 3.34332 15.8085 3.34332 16.0149V22.0824C3.34332 22.2888 3.41555 22.4642 3.56001 22.6087C3.72511 22.7531 3.91085 22.8253 4.11723 22.8253Z" fill="white"/>
<path d="M58.166 34.1555V15.8911C58.166 15.1481 58.3415 14.4774 58.6923 13.8789C59.0638 13.2598 59.5488 12.7748 60.1473 12.4239C60.7664 12.0524 61.4475 11.8667 62.1904 11.8667H76.3995C77.1425 11.8667 77.8235 12.0524 78.4426 12.4239C79.0618 12.7748 79.5468 13.2598 79.8976 13.8789C80.2691 14.4774 80.4548 15.1481 80.4548 15.8911V34.1555H77.0805V26.3544H61.5094V34.1555H58.166ZM61.5094 23.0111H77.0805V15.9839C77.0805 15.7776 77.0083 15.6021 76.8638 15.4577C76.7194 15.2926 76.544 15.21 76.3376 15.21H62.2833C62.0769 15.21 61.8912 15.2926 61.7261 15.4577C61.5816 15.6021 61.5094 15.7776 61.5094 15.9839V23.0111Z" fill="white"/>
<path d="M102.246 34.1555L95.2811 25.8281H99.646L106.147 33.5363V34.1555H102.246ZM83.9819 34.1555V11.8977H102.215C102.958 11.8977 103.639 12.0834 104.259 12.4549C104.878 12.8264 105.363 13.3217 105.713 13.9408C106.085 14.5393 106.271 15.1997 106.271 15.922V22.1753C106.271 22.9182 106.085 23.5993 105.713 24.2184C105.363 24.8169 104.878 25.3019 104.259 25.6734C103.639 26.0242 102.958 26.1996 102.215 26.1996L87.3252 26.2306V34.1555H83.9819ZM88.0992 22.8253H102.153C102.36 22.8253 102.535 22.7531 102.68 22.6087C102.824 22.4642 102.896 22.2888 102.896 22.0824V16.0149C102.896 15.8085 102.824 15.6331 102.68 15.4886C102.535 15.3235 102.36 15.241 102.153 15.241H88.0992C87.8928 15.241 87.7071 15.3235 87.542 15.4886C87.3975 15.6331 87.3252 15.8085 87.3252 16.0149V22.0824C87.3252 22.2888 87.3975 22.4642 87.542 22.6087C87.7071 22.7531 87.8928 22.8253 88.0992 22.8253Z" fill="white"/>
<path d="M113.428 34.1555C112.705 34.1555 112.035 33.9801 111.416 33.6292C110.796 33.2577 110.301 32.7727 109.93 32.1742C109.579 31.5551 109.403 30.8741 109.403 30.1311V28.8309H112.747V30.0382C112.747 30.2446 112.819 30.4304 112.963 30.5955C113.128 30.7399 113.314 30.8122 113.521 30.8122H127.575C127.781 30.8122 127.957 30.7399 128.101 30.5955C128.246 30.4304 128.318 30.2446 128.318 30.0382V25.4567C128.318 25.2296 128.246 25.0439 128.101 24.8994C127.957 24.755 127.781 24.6827 127.575 24.6827H113.428C112.705 24.6827 112.035 24.5073 111.416 24.1565C110.796 23.785 110.301 23.3 109.93 22.7015C109.579 22.0824 109.403 21.4013 109.403 20.6584V15.8911C109.403 15.1481 109.579 14.4774 109.93 13.8789C110.301 13.2598 110.796 12.7748 111.416 12.4239C112.035 12.0524 112.705 11.8667 113.428 11.8667H127.668C128.39 11.8667 129.061 12.0524 129.68 12.4239C130.299 12.7748 130.784 13.2598 131.135 13.8789C131.506 14.4774 131.692 15.1481 131.692 15.8911V17.1912H128.318V15.9839C128.318 15.7776 128.246 15.6021 128.101 15.4577C127.957 15.2926 127.781 15.21 127.575 15.21H113.521C113.314 15.21 113.128 15.2926 112.963 15.4577C112.819 15.6021 112.747 15.7776 112.747 15.9839V20.5655C112.747 20.7925 112.819 20.9783 112.963 21.1227C113.128 21.2672 113.314 21.3394 113.521 21.3394H127.668C128.39 21.3394 129.061 21.5252 129.68 21.8966C130.299 22.2475 130.784 22.7325 131.135 23.3516C131.506 23.9501 131.692 24.6208 131.692 25.3638V30.1311C131.692 30.8741 131.506 31.5551 131.135 32.1742C130.784 32.7727 130.299 33.2577 129.68 33.6292C129.061 33.9801 128.39 34.1555 127.668 34.1555H113.428Z" fill="white"/>
<line x1="33.5364" y1="37.6958" x2="55.464" y2="37.6958" stroke="#0075F2" stroke-width="2"/>
<path d="M33.5364 10.3189L43.2288 2.33691C43.9673 1.72872 45.0331 1.72872 45.7716 2.33691L55.464 10.3189" stroke="#0075F2" stroke-width="2"/>
<path d="M38.6939 11.9947H37.7157C37.6613 11.9947 37.6178 11.9792 37.5852 11.9484C37.5526 11.9072 37.5363 11.8609 37.5363 11.8094C37.5363 11.7477 37.5526 11.7014 37.5852 11.6705C37.6178 11.6293 37.6613 11.6087 37.7157 11.6087H43.0146C43.0689 11.6087 43.1124 11.6293 43.145 11.6705C43.1885 11.7014 43.2103 11.7425 43.2103 11.794C43.2103 11.8557 43.1885 11.9072 43.145 11.9484C43.1124 11.9792 43.0689 11.9947 43.0146 11.9947H42.0363V34.4248H43.0146C43.1233 34.4969 43.1776 34.5638 43.1776 34.6255C43.1776 34.6976 43.1233 34.7645 43.0146 34.8262H37.5852C37.4657 34.7542 37.4059 34.6873 37.4059 34.6255C37.4059 34.5638 37.4657 34.4969 37.5852 34.4248H38.6939V11.9947Z" fill="#0075F2"/>
<path d="M47.723 11.9947H46.7447C46.6904 11.9947 46.6469 11.9792 46.6143 11.9484C46.5817 11.9072 46.5654 11.8609 46.5654 11.8094C46.5654 11.7477 46.5817 11.7014 46.6143 11.6705C46.6469 11.6293 46.6904 11.6087 46.7447 11.6087H52.0437C52.098 11.6087 52.1415 11.6293 52.1741 11.6705C52.2176 11.7014 52.2393 11.7425 52.2393 11.794C52.2393 11.8557 52.2176 11.9072 52.1741 11.9484C52.1415 11.9792 52.098 11.9947 52.0437 11.9947H51.0654V34.4248H52.0437C52.1523 34.4969 52.2067 34.5638 52.2067 34.6255C52.2067 34.6976 52.1523 34.7645 52.0437 34.8262H46.6143C46.4947 34.7542 46.4349 34.6873 46.4349 34.6255C46.4349 34.5638 46.4947 34.4969 46.6143 34.4248H47.723V11.9947Z" fill="#0075F2"/>
<line x1="46.4349" y1="0.5" x2="42.5654" y2="0.5" stroke="#0075F2"/>
<path d="M26.2408 34.2071V12.2795H30.1104V34.2071H26.2408Z" fill="white"/>
</svg>
