<svg width="132" height="40" viewBox="0 0 132 40" fill="none" xmlns="http://www.w3.org/2000/svg">
<path d="M0 34.1555V11.8977H18.2335C18.9764 11.8977 19.6575 12.0834 20.2766 12.4549C20.8957 12.8264 21.3807 13.3217 21.7316 13.9408C22.103 14.5393 22.2888 15.1997 22.2888 15.922V22.1753C22.2888 22.9182 22.103 23.5993 21.7316 24.2184C21.3807 24.8169 20.8957 25.3019 20.2766 25.6734C19.6575 26.0242 18.9764 26.1996 18.2335 26.1996L3.34332 26.2306V34.1555H0ZM4.11723 22.8253H18.1715C18.3779 22.8253 18.5533 22.7531 18.6978 22.6087C18.8423 22.4642 18.9145 22.2888 18.9145 22.0824V16.0149C18.9145 15.8085 18.8423 15.6331 18.6978 15.4886C18.5533 15.3235 18.3779 15.241 18.1715 15.241H4.11723C3.91085 15.241 3.72511 15.3235 3.56001 15.4886C3.41555 15.6331 3.34332 15.8085 3.34332 16.0149V22.0824C3.34332 22.2888 3.41555 22.4642 3.56001 22.6087C3.72511 22.7531 3.91085 22.8253 4.11723 22.8253Z" fill="white"/>
<path d="M58.166 34.1555V15.8911C58.166 15.1481 58.3415 14.4774 58.6923 13.8789C59.0638 13.2597 59.5488 12.7748 60.1473 12.4239C60.7664 12.0524 61.4474 11.8667 62.1904 11.8667H76.3995C77.1425 11.8667 77.8235 12.0524 78.4426 12.4239C79.0618 12.7748 79.5468 13.2597 79.8976 13.8789C80.2691 14.4774 80.4548 15.1481 80.4548 15.8911V34.1555H77.0805V26.3544H61.5094V34.1555H58.166ZM61.5094 23.0111H77.0805V15.9839C77.0805 15.7776 77.0083 15.6021 76.8638 15.4577C76.7194 15.2926 76.544 15.21 76.3376 15.21H62.2833C62.0769 15.21 61.8912 15.2926 61.7261 15.4577C61.5816 15.6021 61.5094 15.7776 61.5094 15.9839V23.0111Z" fill="white"/>
<path d="M102.246 34.1555L95.2811 25.8281H99.646L106.147 33.5363V34.1555H102.246ZM83.9819 34.1555V11.8977H102.215C102.958 11.8977 103.639 12.0834 104.259 12.4549C104.878 12.8264 105.363 13.3217 105.713 13.9408C106.085 14.5393 106.271 15.1997 106.271 15.922V22.1753C106.271 22.9182 106.085 23.5993 105.713 24.2184C105.363 24.8169 104.878 25.3019 104.259 25.6734C103.639 26.0242 102.958 26.1996 102.215 26.1996L87.3252 26.2306V34.1555H83.9819ZM88.0992 22.8253H102.153C102.36 22.8253 102.535 22.7531 102.68 22.6087C102.824 22.4642 102.896 22.2888 102.896 22.0824V16.0149C102.896 15.8085 102.824 15.6331 102.68 15.4886C102.535 15.3235 102.36 15.241 102.153 15.241H88.0992C87.8928 15.241 87.7071 15.3235 87.542 15.4886C87.3975 15.6331 87.3252 15.8085 87.3252 16.0149V22.0824C87.3252 22.2888 87.3975 22.4642 87.542 22.6087C87.7071 22.7531 87.8928 22.8253 88.0992 22.8253Z" fill="white"/>
<path d="M113.428 34.1555C112.705 34.1555 112.035 33.9801 111.416 33.6292C110.796 33.2577 110.301 32.7727 109.93 32.1742C109.579 31.5551 109.403 30.8741 109.403 30.1311V28.8309H112.747V30.0382C112.747 30.2446 112.819 30.4304 112.963 30.5955C113.128 30.7399 113.314 30.8122 113.521 30.8122H127.575C127.781 30.8122 127.957 30.7399 128.101 30.5955C128.246 30.4304 128.318 30.2446 128.318 30.0382V25.4567C128.318 25.2296 128.246 25.0439 128.101 24.8994C127.957 24.755 127.781 24.6827 127.575 24.6827H113.428C112.705 24.6827 112.035 24.5073 111.416 24.1565C110.796 23.785 110.301 23.3 109.93 22.7015C109.579 22.0824 109.403 21.4013 109.403 20.6584V15.8911C109.403 15.1481 109.579 14.4774 109.93 13.8789C110.301 13.2597 110.796 12.7748 111.416 12.4239C112.035 12.0524 112.705 11.8667 113.428 11.8667H127.668C128.39 11.8667 129.061 12.0524 129.68 12.4239C130.299 12.7748 130.784 13.2597 131.135 13.8789C131.506 14.4774 131.692 15.1481 131.692 15.8911V17.1912H128.318V15.9839C128.318 15.7776 128.246 15.6021 128.101 15.4577C127.957 15.2926 127.781 15.21 127.575 15.21H113.521C113.314 15.21 113.128 15.2926 112.963 15.4577C112.819 15.6021 112.747 15.7776 112.747 15.9839V20.5655C112.747 20.7925 112.819 20.9783 112.963 21.1227C113.128 21.2672 113.314 21.3394 113.521 21.3394H127.668C128.39 21.3394 129.061 21.5252 129.68 21.8966C130.299 22.2475 130.784 22.7325 131.135 23.3516C131.506 23.9501 131.692 24.6208 131.692 25.3638V30.1311C131.692 30.8741 131.506 31.5551 131.135 32.1742C130.784 32.7727 130.299 33.2577 129.68 33.6292C129.061 33.9801 128.39 34.1555 127.668 34.1555H113.428Z" fill="white"/>
<path d="M33.5364 37.6958L55.464 37.6958" stroke="#0075F2" stroke-width="3"/>
<path d="M33.5364 10.3189L43.2288 2.33691C43.9673 1.72872 45.0331 1.72872 45.7716 2.33691L55.464 10.3189" stroke="#0075F2" stroke-width="3"/>
<path d="M37.5534 12.3823H36.3736C36.3081 12.3823 36.2556 12.367 36.2163 12.3364C36.177 12.2957 36.1573 12.2498 36.1573 12.1988C36.1573 12.1376 36.177 12.0918 36.2163 12.0612C36.2556 12.0204 36.3081 12 36.3736 12H42.764C42.8296 12 42.882 12.0204 42.9213 12.0612C42.9738 12.0918 43 12.1325 43 12.1835C43 12.2447 42.9738 12.2957 42.9213 12.3364C42.882 12.367 42.8296 12.3823 42.764 12.3823H41.5843V34.6024H42.764C42.8951 34.6738 42.9607 34.74 42.9607 34.8012C42.9607 34.8726 42.8951 34.9388 42.764 35H36.2163C36.0721 34.9286 36 34.8624 36 34.8012C36 34.74 36.0721 34.6738 36.2163 34.6024H37.5534V12.3823Z" fill="url(#paint0_linear_43_559)"/>
<path d="M47.5534 12.3823H46.3736C46.3081 12.3823 46.2556 12.367 46.2163 12.3364C46.177 12.2957 46.1573 12.2498 46.1573 12.1988C46.1573 12.1376 46.177 12.0918 46.2163 12.0612C46.2556 12.0204 46.3081 12 46.3736 12H52.764C52.8296 12 52.882 12.0204 52.9213 12.0612C52.9738 12.0918 53 12.1325 53 12.1835C53 12.2447 52.9738 12.2957 52.9213 12.3364C52.882 12.367 52.8296 12.3823 52.764 12.3823H51.5843V34.6024H52.764C52.8951 34.6738 52.9607 34.74 52.9607 34.8012C52.9607 34.8726 52.8951 34.9388 52.764 35H46.2163C46.0721 34.9286 46 34.8624 46 34.8012C46 34.74 46.0721 34.6738 46.2163 34.6024H47.5534V12.3823Z" fill="url(#paint1_linear_43_559)"/>
<line x1="46.4349" y1="0.5" x2="42.5654" y2="0.5" stroke="#0075F2"/>
<path d="M26.2408 34.2071V12.2795H30.1104V34.2071H26.2408Z" fill="white"/>
<defs>
<linearGradient id="paint0_linear_43_559" x1="39.5" y1="12" x2="39.5" y2="35" gradientUnits="userSpaceOnUse">
<stop stop-color="#0EABEE"/>
<stop offset="1" stop-color="#25FFE6"/>
</linearGradient>
<linearGradient id="paint1_linear_43_559" x1="49.5" y1="12" x2="49.5" y2="35" gradientUnits="userSpaceOnUse">
<stop stop-color="#0EABEE"/>
<stop offset="1" stop-color="#25FFE6"/>
</linearGradient>
</defs>
</svg>
