<svg width="35" height="35" viewBox="0 0 35 35" fill="none" xmlns="http://www.w3.org/2000/svg">
<path fill-rule="evenodd" clip-rule="evenodd" d="M17.5 0.970215C8.11116 0.970215 0.5 8.58137 0.5 17.9702C0.5 27.3591 8.11116 34.9702 17.5 34.9702C26.8888 34.9702 34.5 27.3591 34.5 17.9702C34.5 8.58137 26.8888 0.970215 17.5 0.970215ZM17.0265 15.3763L16.9909 14.788C16.8838 13.2634 17.8232 11.8708 19.3096 11.3306C19.8566 11.1385 20.7841 11.1145 21.3906 11.2826C21.6284 11.3546 22.0803 11.5947 22.4013 11.8108L22.984 12.207L23.6261 12.0029C23.9828 11.8949 24.4585 11.7148 24.6725 11.5947C24.8747 11.4867 25.053 11.4267 25.053 11.4627C25.053 11.6668 24.6131 12.363 24.2445 12.7472C23.745 13.2874 23.8877 13.3354 24.8985 12.9753C25.5049 12.7712 25.5168 12.7712 25.3979 12.9993C25.3265 13.1194 24.9579 13.5395 24.5655 13.9237C23.8996 14.5839 23.8639 14.656 23.8639 15.2082C23.8639 16.0605 23.4596 17.8373 23.0553 18.8097C22.3062 20.6344 20.7009 22.5192 19.0956 23.4675C16.8363 24.8001 13.8278 25.1362 11.295 24.3559C10.4507 24.0918 9 23.4195 9 23.2995C9 23.2635 9.43997 23.2154 9.97507 23.2034C11.0928 23.1794 12.2106 22.8673 13.1619 22.3151L13.804 21.9309L13.0668 21.6788C12.0204 21.3187 11.081 20.4903 10.8431 19.71C10.7718 19.4579 10.7956 19.4459 11.4615 19.4459L12.1512 19.4339L11.5685 19.1578C10.8788 18.8097 10.2486 18.2214 9.9394 17.6212C9.71347 17.189 9.42808 16.0966 9.51132 16.0125C9.5351 15.9765 9.78482 16.0485 10.0702 16.1446C10.8907 16.4447 10.9977 16.3727 10.5221 15.8685C9.63023 14.9561 9.35673 13.5995 9.78482 12.315L9.98697 11.7388L10.7718 12.5191C12.3771 14.0917 14.2678 15.0281 16.432 15.3042L17.0265 15.3763Z" fill="white"/>
</svg>
